<svg xmlns="http://www.w3.org/2000/svg" viewBox="0 0 400 400"><defs><style>.a,.b{fill:#fff;}.a,.b,.c{stroke:#0c4725;}.a,.b,.c,.d{stroke-miterlimit:10;}.a{stroke-width:8px;}.b,.c,.d{stroke-linecap:round;stroke-width:10px;}.c,.d{fill:none;}.d{stroke:#dd2031;}</style></defs><rect class="a" x="55.95" y="40.9" width="298.9" height="298.9" rx="12"/><path class="b" d="M120,76.93c17.26,32.53,27.92,31.8,39.4,32.18,19.44.64,30-15.57,53.8-25.87,22.58-9.75,42.74,2.14,60.53,25.88"/><path class="c" d="M205.74,137.73S214.26,255.6,120,305.37"/><path class="c" d="M205.6,137.73s-8.51,117.87,85.79,167.64"/><path class="d" d="M85,141.41c.28,6.94,2,27.93,18,46.71a76,76,0,0,0,30.54,21.56"/><path class="d" d="M329.87,141.41c-.27,6.94-2,27.93-18,46.71a76,76,0,0,1-30.55,21.56"/></svg>